<svg width="38" height="32" viewBox="0 0 38 32" fill="none" xmlns="http://www.w3.org/2000/svg">
<path d="M12.0108 19.2187L12.85 19.9253L12.0108 19.2187ZM16.4885 19.2187L15.6493 19.9253L16.4885 19.2187ZM16.7608 19.448L17.6 18.7413L16.7608 19.448ZM21.2385 19.448L20.3993 18.7413L21.2385 19.448ZM24.6775 16.552L23.8383 15.8453L24.6775 16.552ZM29.1552 16.552L29.9943 15.8453L29.1552 16.552ZM7.91634 6.33334H30.083V4.33334H7.91634V6.33334ZM30.4788 6.66668V25.3333H32.8538V6.66668H30.4788ZM30.083 25.6667H7.91634V27.6667H30.083V25.6667ZM7.52051 25.3333V6.66668H5.14551V25.3333H7.52051ZM7.91634 25.6667C7.81136 25.6667 7.71068 25.6316 7.63644 25.569C7.56221 25.5065 7.52051 25.4217 7.52051 25.3333H5.14551C5.14551 26.6213 6.38684 27.6667 7.91634 27.6667V25.6667ZM30.4788 25.3333C30.4788 25.4217 30.4371 25.5065 30.3629 25.569C30.2887 25.6316 30.188 25.6667 30.083 25.6667V27.6667C30.8179 27.6667 31.5226 27.4208 32.0423 26.9833C32.5619 26.5457 32.8538 25.9522 32.8538 25.3333H30.4788ZM30.083 6.33334C30.188 6.33334 30.2887 6.36846 30.3629 6.43097C30.4371 6.49349 30.4788 6.57827 30.4788 6.66668H32.8538C32.8538 6.04784 32.5619 5.45435 32.0423 5.01676C31.5226 4.57918 30.8179 4.33334 30.083 4.33334V6.33334ZM7.91634 4.33334C7.18147 4.33334 6.4767 4.57918 5.95707 5.01676C5.43743 5.45435 5.14551 6.04784 5.14551 6.66668H7.52051C7.52051 6.57827 7.56221 6.49349 7.63644 6.43097C7.71068 6.36846 7.81136 6.33334 7.91634 6.33334V4.33334ZM7.17217 24.7067L12.85 19.9253L11.1717 18.512L5.49384 23.2933L7.17217 24.7067ZM15.6493 19.9253L15.9201 20.1547L17.6 18.7413L17.3293 18.512L15.6493 19.9253ZM22.0777 20.1547L25.5167 17.26L23.8383 15.8453L20.3993 18.74L22.0777 20.1547ZM28.316 17.26L30.8272 19.3733L32.5055 17.96L29.9959 15.8453L28.316 17.2587V17.26ZM25.5167 17.26C25.7005 17.1052 25.9187 16.9824 26.1588 16.8986C26.399 16.8148 26.6564 16.7717 26.9163 16.7717C27.1763 16.7717 27.4337 16.8148 27.6739 16.8986C27.914 16.9824 28.1322 17.1052 28.316 17.26L29.9943 15.8453C29.1778 15.1582 28.0707 14.7721 26.9163 14.7721C25.762 14.7721 24.6548 15.1582 23.8383 15.8453L25.5167 17.2587V17.26ZM15.9217 20.1547C16.7382 20.8423 17.8457 21.2286 19.0005 21.2286C20.1552 21.2286 21.2627 20.8423 22.0793 20.1547L20.3993 18.7413C20.2155 18.8962 19.9973 19.019 19.7572 19.1027C19.517 19.1865 19.2596 19.2297 18.9997 19.2297C18.7397 19.2297 18.4823 19.1865 18.2422 19.1027C18.002 19.019 17.7838 18.8962 17.6 18.7413L15.9217 20.1547ZM12.85 19.9267C13.0338 19.7719 13.252 19.6491 13.4922 19.5653C13.7323 19.4815 13.9897 19.4384 14.2497 19.4384C14.5096 19.4384 14.767 19.4815 15.0072 19.5653C15.2473 19.6491 15.4656 19.7719 15.6493 19.9267L17.3277 18.512C16.5111 17.8244 15.4036 17.4381 14.2489 17.4381C13.0941 17.4381 11.9866 17.8244 11.1701 18.512L12.85 19.9253V19.9267ZM15.7396 11.7947C15.7396 12.6013 14.9622 13.256 14.0043 13.256V15.256C15.0943 15.2557 16.1395 14.8909 16.9102 14.2418C17.681 13.5928 18.1142 12.7126 18.1146 11.7947H15.7396ZM14.0043 13.256C13.0479 13.256 12.2705 12.6027 12.2705 11.7947H9.89551C9.89551 12.7124 10.3283 13.5927 11.0988 14.2417C11.8693 14.8908 12.9144 15.2557 14.0043 15.256V13.256ZM12.2705 11.7947C12.2705 10.988 13.0479 10.3333 14.0043 10.3333V8.33334C12.9144 8.3337 11.8693 8.69853 11.0988 9.34762C10.3283 9.9967 9.89551 10.8769 9.89551 11.7947H12.2705ZM14.0043 10.3333C14.9622 10.3333 15.7396 10.988 15.7396 11.7947H18.1146C18.1142 10.8768 17.681 9.99658 16.9102 9.34754C16.1395 8.69849 15.0943 8.3337 14.0043 8.33334V10.3333Z" fill="#9C9896"/>
</svg>
