<svg width="26" height="26" viewBox="0 0 26 26" fill="none" xmlns="http://www.w3.org/2000/svg">
<path d="M20.2583 10.5084L13.7583 17.0084C13.5417 17.225 13.325 17.3334 13 17.3334C12.675 17.3334 12.4583 17.225 12.2417 17.0084L5.74166 10.5084C5.30832 10.075 5.30832 9.42502 5.74166 8.99169C6.17499 8.55835 6.82499 8.55835 7.25832 8.99169L13 14.7334L18.7417 8.99169C19.175 8.55835 19.825 8.55835 20.2583 8.99169C20.6917 9.42502 20.6917 10.075 20.2583 10.5084Z" fill="black"/>
<mask id="mask0_6_567" style="mask-type:luminance" maskUnits="userSpaceOnUse" x="5" y="8" width="16" height="10">
<path d="M20.2583 10.5084L13.7583 17.0084C13.5417 17.225 13.325 17.3334 13 17.3334C12.675 17.3334 12.4583 17.225 12.2417 17.0084L5.74166 10.5084C5.30832 10.075 5.30832 9.42502 5.74166 8.99169C6.17499 8.55835 6.82499 8.55835 7.25832 8.99169L13 14.7334L18.7417 8.99169C19.175 8.55835 19.825 8.55835 20.2583 8.99169C20.6917 9.42502 20.6917 10.075 20.2583 10.5084Z" fill="white"/>
</mask>
<g mask="url(#mask0_6_567)">
<rect width="26" height="26" fill="#C7C4C0"/>
</g>
</svg>
