<svg width="28" height="25" viewBox="0 0 28 25" fill="none" xmlns="http://www.w3.org/2000/svg">
<path d="M25.4473 2.64842C23.9628 1.15049 21.9951 0.236237 19.8995 0.070812C17.8039 -0.0946127 15.7187 0.499695 14.0204 1.74638C12.2386 0.412553 10.0209 -0.19227 7.81387 0.0537119C5.60681 0.299694 3.57432 1.37821 2.1257 3.07207C0.677073 4.76593 -0.0800771 6.94932 0.00671527 9.18255C0.0935077 11.4158 1.0178 13.533 2.59345 15.1078L11.2897 23.8744C12.0179 24.5957 12.9986 25 14.0204 25C15.0421 25 16.0228 24.5957 16.7511 23.8744L25.4473 15.1078C27.0823 13.4521 28 11.2125 28 8.87809C28 6.54369 27.0823 4.30412 25.4473 2.64842ZM23.4728 13.1628L14.7765 21.9153C14.6776 22.0159 14.5598 22.0957 14.43 22.1502C14.3002 22.2047 14.161 22.2327 14.0204 22.2327C13.8797 22.2327 13.7405 22.2047 13.6107 22.1502C13.4809 22.0957 13.3631 22.0159 13.2642 21.9153L4.56795 13.1205C3.46974 11.9906 2.85477 10.4728 2.85477 8.89219C2.85477 7.31156 3.46974 5.79378 4.56795 4.6639C5.68706 3.55184 7.19638 2.92829 8.76902 2.92829C10.3417 2.92829 11.851 3.55184 12.9701 4.6639C13.1003 4.796 13.2552 4.90086 13.4258 4.97241C13.5964 5.04397 13.7795 5.08081 13.9643 5.08081C14.1492 5.08081 14.3322 5.04397 14.5029 4.97241C14.6735 4.90086 14.8284 4.796 14.9586 4.6639C16.0777 3.55184 17.587 2.92829 19.1597 2.92829C20.7323 2.92829 22.2416 3.55184 23.3607 4.6639C24.474 5.77897 25.1092 7.28853 25.1301 8.86919C25.1511 10.4499 24.5561 11.9759 23.4728 13.1205V13.1628Z" fill="#EE5F40"/>
</svg>
