<svg width="28" height="28" viewBox="0 0 28 28" fill="none" xmlns="http://www.w3.org/2000/svg">
<path d="M14 2.33334C11.5247 2.33334 9.1507 3.31667 7.40036 5.06701C5.65002 6.81735 4.66669 9.19132 4.66669 11.6667C4.66669 17.9667 12.8917 25.0833 13.2417 25.3867C13.453 25.5674 13.7219 25.6668 14 25.6668C14.2781 25.6668 14.547 25.5674 14.7584 25.3867C15.1667 25.0833 23.3334 17.9667 23.3334 11.6667C23.3334 9.19132 22.35 6.81735 20.5997 5.06701C18.8493 3.31667 16.4754 2.33334 14 2.33334ZM14 22.925C11.515 20.5917 7.00002 15.5633 7.00002 11.6667C7.00002 9.81016 7.73752 8.02968 9.05027 6.71693C10.363 5.40417 12.1435 4.66668 14 4.66668C15.8565 4.66668 17.637 5.40417 18.9498 6.71693C20.2625 8.02968 21 9.81016 21 11.6667C21 15.5633 16.485 20.6033 14 22.925ZM14 7.00001C13.077 7.00001 12.1748 7.27371 11.4074 7.78648C10.6399 8.29926 10.0418 9.0281 9.68858 9.88082C9.33537 10.7335 9.24296 11.6719 9.42302 12.5771C9.60309 13.4823 10.0475 14.3139 10.7002 14.9665C11.3528 15.6192 12.1844 16.0636 13.0896 16.2437C13.9948 16.4237 14.9332 16.3313 15.7859 15.9781C16.6386 15.6249 17.3674 15.0268 17.8802 14.2593C18.393 13.4919 18.6667 12.5897 18.6667 11.6667C18.6667 10.429 18.175 9.24201 17.2999 8.36684C16.4247 7.49167 15.2377 7.00001 14 7.00001ZM14 14C13.5385 14 13.0874 13.8632 12.7037 13.6068C12.32 13.3504 12.0209 12.986 11.8443 12.5596C11.6677 12.1332 11.6215 11.6641 11.7115 11.2115C11.8016 10.7588 12.0238 10.3431 12.3501 10.0168C12.6764 9.69044 13.0922 9.46821 13.5448 9.37818C13.9974 9.28815 14.4666 9.33435 14.8929 9.51096C15.3193 9.68756 15.6837 9.98663 15.9401 10.3703C16.1965 10.7541 16.3334 11.2052 16.3334 11.6667C16.3334 12.2855 16.0875 12.879 15.6499 13.3166C15.2124 13.7542 14.6189 14 14 14Z" fill="#303030"/>
</svg>
