<svg width="33" height="33" viewBox="0 0 33 33" fill="none" xmlns="http://www.w3.org/2000/svg">
<path d="M27.5 11.2475V4.12499C27.5 3.76032 27.3551 3.41059 27.0972 3.15272C26.8394 2.89486 26.4896 2.74999 26.125 2.74999C25.7603 2.74999 25.4106 2.89486 25.1527 3.15272C24.8948 3.41059 24.75 3.76032 24.75 4.12499V11.2475C23.9536 11.5365 23.2656 12.0637 22.7794 12.7575C22.2931 13.4512 22.0323 14.2778 22.0323 15.125C22.0323 15.9722 22.2931 16.7988 22.7794 17.4925C23.2656 18.1862 23.9536 18.7135 24.75 19.0025V28.875C24.75 29.2397 24.8948 29.5894 25.1527 29.8473C25.4106 30.1051 25.7603 30.25 26.125 30.25C26.4896 30.25 26.8394 30.1051 27.0972 29.8473C27.3551 29.5894 27.5 29.2397 27.5 28.875V19.0025C28.2963 18.7135 28.9843 18.1862 29.4706 17.4925C29.9568 16.7988 30.2176 15.9722 30.2176 15.125C30.2176 14.2778 29.9568 13.4512 29.4706 12.7575C28.9843 12.0637 28.2963 11.5365 27.5 11.2475ZM26.125 16.5C25.853 16.5 25.5872 16.4193 25.3611 16.2683C25.1349 16.1172 24.9587 15.9024 24.8546 15.6512C24.7506 15.3999 24.7233 15.1235 24.7764 14.8567C24.8294 14.59 24.9604 14.345 25.1527 14.1527C25.345 13.9604 25.59 13.8295 25.8567 13.7764C26.1234 13.7234 26.3999 13.7506 26.6512 13.8547C26.9024 13.9587 27.1171 14.135 27.2682 14.3611C27.4193 14.5872 27.5 14.853 27.5 15.125C27.5 15.4897 27.3551 15.8394 27.0972 16.0973C26.8394 16.3551 26.4896 16.5 26.125 16.5ZM17.875 19.4975V4.12499C17.875 3.76032 17.7301 3.41059 17.4722 3.15272C17.2144 2.89486 16.8646 2.74999 16.5 2.74999C16.1353 2.74999 15.7856 2.89486 15.5277 3.15272C15.2698 3.41059 15.125 3.76032 15.125 4.12499V19.4975C14.3286 19.7865 13.6406 20.3137 13.1544 21.0075C12.6682 21.7012 12.4073 22.5278 12.4073 23.375C12.4073 24.2221 12.6682 25.0488 13.1544 25.7425C13.6406 26.4362 14.3286 26.9635 15.125 27.2525V28.875C15.125 29.2397 15.2698 29.5894 15.5277 29.8473C15.7856 30.1051 16.1353 30.25 16.5 30.25C16.8646 30.25 17.2144 30.1051 17.4722 29.8473C17.7301 29.5894 17.875 29.2397 17.875 28.875V27.2525C18.6713 26.9635 19.3593 26.4362 19.8456 25.7425C20.3318 25.0488 20.5926 24.2221 20.5926 23.375C20.5926 22.5278 20.3318 21.7012 19.8456 21.0075C19.3593 20.3137 18.6713 19.7865 17.875 19.4975ZM16.5 24.75C16.228 24.75 15.9622 24.6693 15.7361 24.5183C15.5099 24.3672 15.3337 24.1524 15.2296 23.9012C15.1256 23.6499 15.0983 23.3735 15.1514 23.1067C15.2044 22.84 15.3354 22.595 15.5277 22.4027C15.72 22.2104 15.965 22.0795 16.2317 22.0264C16.4984 21.9734 16.7749 22.0006 17.0262 22.1047C17.2774 22.2087 17.4922 22.385 17.6432 22.6111C17.7943 22.8372 17.875 23.103 17.875 23.375C17.875 23.7397 17.7301 24.0894 17.4722 24.3473C17.2144 24.6051 16.8646 24.75 16.5 24.75ZM8.24997 8.49749V4.12499C8.24997 3.76032 8.10511 3.41059 7.84725 3.15272C7.58938 2.89486 7.23965 2.74999 6.87497 2.74999C6.5103 2.74999 6.16057 2.89486 5.9027 3.15272C5.64484 3.41059 5.49997 3.76032 5.49997 4.12499V8.49749C4.70364 8.78652 4.01561 9.31373 3.52938 10.0075C3.04316 10.7012 2.78232 11.5278 2.78232 12.375C2.78232 13.2222 3.04316 14.0488 3.52938 14.7425C4.01561 15.4362 4.70364 15.9635 5.49997 16.2525V28.875C5.49997 29.2397 5.64484 29.5894 5.9027 29.8473C6.16057 30.1051 6.5103 30.25 6.87497 30.25C7.23965 30.25 7.58938 30.1051 7.84725 29.8473C8.10511 29.5894 8.24997 29.2397 8.24997 28.875V16.2525C9.04631 15.9635 9.73434 15.4362 10.2206 14.7425C10.7068 14.0488 10.9676 13.2222 10.9676 12.375C10.9676 11.5278 10.7068 10.7012 10.2206 10.0075C9.73434 9.31373 9.04631 8.78652 8.24997 8.49749ZM6.87497 13.75C6.60302 13.75 6.33718 13.6693 6.11107 13.5183C5.88495 13.3672 5.70871 13.1524 5.60464 12.9012C5.50057 12.6499 5.47334 12.3735 5.52639 12.1067C5.57945 11.84 5.71041 11.595 5.9027 11.4027C6.095 11.2104 6.34 11.0795 6.60673 11.0264C6.87345 10.9734 7.14992 11.0006 7.40116 11.1047C7.65241 11.2087 7.86716 11.385 8.01824 11.6111C8.16933 11.8372 8.24997 12.103 8.24997 12.375C8.24997 12.7397 8.10511 13.0894 7.84725 13.3473C7.58938 13.6051 7.23965 13.75 6.87497 13.75Z" fill="#303030" fill-opacity="0.35"/>
</svg>
