<svg width="41" height="41" viewBox="0 0 41 41" fill="none" xmlns="http://www.w3.org/2000/svg">
<path d="M18.0284 0.85022C19.4811 -0.283401 21.5188 -0.283402 22.9716 0.850219L26.3784 3.50862C26.9519 3.95611 27.6361 4.23951 28.358 4.32859L32.6468 4.85781C34.4756 5.08348 35.9165 6.52435 36.1422 8.35321L36.6714 12.642C36.7605 13.3639 37.0439 14.0481 37.4914 14.6216L40.1498 18.0284C41.2834 19.4811 41.2834 21.5189 40.1498 22.9716L37.4914 26.3784C37.0439 26.9519 36.7605 27.6361 36.6714 28.358L36.1422 32.6468C35.9165 34.4756 34.4756 35.9165 32.6468 36.1422L28.358 36.6714C27.6361 36.7605 26.9519 37.0439 26.3784 37.4914L22.9716 40.1498C21.5188 41.2834 19.4811 41.2834 18.0284 40.1498L14.6215 37.4914C14.0481 37.0439 13.3639 36.7605 12.642 36.6714L8.35319 36.1422C6.52434 35.9165 5.08346 34.4757 4.85779 32.6468L4.32858 28.358C4.23949 27.6361 3.95609 26.9519 3.5086 26.3784L0.850205 22.9716C-0.283416 21.5189 -0.283418 19.4811 0.850203 18.0284L3.5086 14.6216C3.95609 14.0481 4.23949 13.3639 4.32858 12.642L4.85779 8.35321C5.08346 6.52435 6.52434 5.08348 8.35319 4.85781L12.642 4.32859C13.3639 4.23951 14.0481 3.95611 14.6215 3.50862L18.0284 0.85022Z" fill="url(#paint0_linear_1_357)"/>
<defs>
<linearGradient id="paint0_linear_1_357" x1="18.0055" y1="65.2132" x2="72.7463" y2="33.574" gradientUnits="userSpaceOnUse">
<stop stop-color="#FAA677"/>
<stop offset="1" stop-color="#FAA677" stop-opacity="0.47"/>
</linearGradient>
</defs>
</svg>
