<svg width="32" height="32" viewBox="0 0 32 32" fill="none" xmlns="http://www.w3.org/2000/svg">
<circle cx="16" cy="16" r="16" fill="#8C817B" fill-opacity="0.1"/>
<path d="M17.1933 23.9467L11.9933 17.5467C11.82 17.3333 11.7333 17.12 11.7333 16.8C11.7333 16.48 11.82 16.2667 11.9933 16.0533L17.1933 9.65334C17.54 9.22668 18.06 9.22668 18.4067 9.65334C18.7533 10.08 18.7533 10.72 18.4067 11.1467L13.8133 16.8L18.4067 22.4533C18.7533 22.88 18.7533 23.52 18.4067 23.9467C18.06 24.3733 17.54 24.3733 17.1933 23.9467Z" fill="black"/>
<mask id="mask0_6_694" style="mask-type:luminance" maskUnits="userSpaceOnUse" x="11" y="9" width="8" height="16">
<path d="M17.1933 23.9467L11.9933 17.5467C11.82 17.3333 11.7333 17.12 11.7333 16.8C11.7333 16.48 11.82 16.2667 11.9933 16.0533L17.1933 9.65334C17.54 9.22668 18.06 9.22668 18.4067 9.65334C18.7533 10.08 18.7533 10.72 18.4067 11.1467L13.8133 16.8L18.4067 22.4533C18.7533 22.88 18.7533 23.52 18.4067 23.9467C18.06 24.3733 17.54 24.3733 17.1933 23.9467Z" fill="white"/>
</mask>
<g mask="url(#mask0_6_694)">
<rect x="25.6" y="4" width="25.6" height="20.8" transform="rotate(90 25.6 4)" fill="#B8B8B8"/>
</g>
</svg>
