<svg width="30" height="30" viewBox="0 0 30 30" fill="none" xmlns="http://www.w3.org/2000/svg">
<path d="M25.2 6.25001C23.8749 4.92152 22.1185 4.11068 20.2479 3.96397C18.3773 3.81726 16.5159 4.34434 15 5.45001C13.4095 4.26706 11.43 3.73065 9.45988 3.94881C7.48979 4.16696 5.67553 5.12348 4.38244 6.62574C3.08936 8.128 2.41351 10.0644 2.49098 12.045C2.56845 14.0256 3.3935 15.9033 4.79998 17.3L12.5625 25.075C13.2125 25.7147 14.088 26.0733 15 26.0733C15.912 26.0733 16.7875 25.7147 17.4375 25.075L25.2 17.3C26.6595 15.8316 27.4786 13.8453 27.4786 11.775C27.4786 9.70467 26.6595 7.71842 25.2 6.25001ZM23.4375 15.575L15.675 23.3375C15.5866 23.4267 15.4815 23.4975 15.3657 23.5458C15.2498 23.5941 15.1255 23.619 15 23.619C14.8744 23.619 14.7502 23.5941 14.6343 23.5458C14.5184 23.4975 14.4133 23.4267 14.325 23.3375L6.56248 15.5375C5.58218 14.5354 5.03324 13.1893 5.03324 11.7875C5.03324 10.3857 5.58218 9.03958 6.56248 8.03751C7.56142 7.05124 8.90869 6.49822 10.3125 6.49822C11.7163 6.49822 13.0635 7.05124 14.0625 8.03751C14.1787 8.15467 14.3169 8.24766 14.4693 8.31112C14.6216 8.37458 14.785 8.40726 14.95 8.40726C15.115 8.40726 15.2784 8.37458 15.4307 8.31112C15.583 8.24766 15.7213 8.15467 15.8375 8.03751C16.8364 7.05124 18.1837 6.49822 19.5875 6.49822C20.9913 6.49822 22.3385 7.05124 23.3375 8.03751C24.3313 9.02644 24.8982 10.3652 24.9169 11.7671C24.9356 13.169 24.4045 14.5224 23.4375 15.5375V15.575Z" fill="#303030" fill-opacity="0.15"/>
</svg>
