<svg width="18" height="20" viewBox="0 0 18 20" fill="none" xmlns="http://www.w3.org/2000/svg">
<path d="M10.2143 15.5833L5.92856 10.5833C5.7857 10.4167 5.71427 10.25 5.71427 9.99999C5.71427 9.74999 5.7857 9.58332 5.92856 9.41666L10.2143 4.41666C10.5 4.08332 10.9286 4.08332 11.2143 4.41666C11.5 4.74999 11.5 5.24999 11.2143 5.58332L7.42856 9.99999L11.2143 14.4167C11.5 14.75 11.5 15.25 11.2143 15.5833C10.9286 15.9167 10.5 15.9167 10.2143 15.5833Z" fill="black"/>
<mask id="mask0_1_240" style="mask-type:luminance" maskUnits="userSpaceOnUse" x="5" y="4" width="7" height="12">
<path d="M10.2143 15.5833L5.92856 10.5833C5.7857 10.4167 5.71427 10.25 5.71427 9.99999C5.71427 9.74999 5.7857 9.58332 5.92856 9.41666L10.2143 4.41666C10.5 4.08332 10.9286 4.08332 11.2143 4.41666C11.5 4.74999 11.5 5.24999 11.2143 5.58332L7.42856 9.99999L11.2143 14.4167C11.5 14.75 11.5 15.25 11.2143 15.5833C10.9286 15.9167 10.5 15.9167 10.2143 15.5833Z" fill="white"/>
</mask>
<g mask="url(#mask0_1_240)">
<rect x="17.1429" width="20" height="17.1429" transform="rotate(90 17.1429 0)" fill="white"/>
</g>
</svg>
