<svg width="29" height="29" viewBox="0 0 29 29" fill="none" xmlns="http://www.w3.org/2000/svg">
<path d="M14.5 26.5833C15.8292 26.5833 16.9167 25.4958 16.9167 24.1666H12.0833C12.0833 25.4958 13.1708 26.5833 14.5 26.5833ZM21.75 19.3333V13.2916C21.75 9.58205 19.7804 6.47664 16.3125 5.65497V4.8333C16.3125 3.83039 15.5029 3.0208 14.5 3.0208C13.4971 3.0208 12.6875 3.83039 12.6875 4.8333V5.65497C9.23167 6.47664 7.25 9.56997 7.25 13.2916V19.3333L4.83333 21.75V22.9583H24.1667V21.75L21.75 19.3333ZM19.3333 20.5416H9.66667V13.2916C9.66667 10.295 11.4912 7.85414 14.5 7.85414C17.5087 7.85414 19.3333 10.295 19.3333 13.2916V20.5416Z" fill="#4B4948"/>
</svg>
